<svg width="37" height="37" viewBox="0 0 37 37" fill="none" xmlns="http://www.w3.org/2000/svg">
<circle cx="18.5" cy="18.5" r="18.5" fill="#0049B1"/>
<path d="M9.80132 16.7512L9.01198 17.5023L8.22266 16.7512L9.01198 16.0001L9.80132 16.7512ZM28.7782 25.249C28.7782 25.8356 28.2785 26.3112 27.6619 26.3112C27.0454 26.3112 26.5456 25.8356 26.5456 25.249H28.7782ZM14.5934 22.8134L9.01198 17.5023L10.5907 16.0001L16.1721 21.3112L14.5934 22.8134ZM9.01198 16.0001L14.5934 10.689L16.1721 12.1912L10.5907 17.5023L9.01198 16.0001ZM9.80132 15.689H20.9642V17.8134H9.80132V15.689ZM28.7782 23.1245V25.249H26.5456V23.1245H28.7782ZM20.9642 15.689C25.2798 15.689 28.7782 19.018 28.7782 23.1245H26.5456C26.5456 20.1913 24.0467 17.8134 20.9642 17.8134V15.689Z" fill="white"/>
</svg>
